<svg id="m2z4cdcj24902243" viewBox="0 0 750 5611" xmlns="http://www.w3.org/2000/svg" xmlns:xlink="http://www.w3.org/1999/xlink"><g id="m2z4cdcj24902243_translate"><g transform="matrix(1,0,0,1,0,0)"><g id="m2z4cdcj24902243" opacity="1" style="mix-blend-mode:normal"><g><defs><clipPath id="m2z4cdcj24902243_clipPath" x="-50%" y="-50%" width="200%" height="200%"><path d="M0.01,0h749.98c0.00552,0 0.01,0.00448 0.01,0.01v5610.98c0,0.00552 -0.00448,0.01 -0.01,0.01h-749.98c-0.00552,0 -0.01,-0.00448 -0.01,-0.01v-5610.98c0,-0.00552 0.00448,-0.01 0.01,-0.01z" fill="white" clip-rule="nonzero"></path></clipPath></defs><g clip-path="url(#m2z4cdcj24902243_clipPath)"><path id="m2z4cdcj24902243_fill_path" d="M0.01,0h749.98c0.00552,0 0.01,0.00448 0.01,0.01v5610.98c0,0.00552 -0.00448,0.01 -0.01,0.01h-749.98c-0.00552,0 -0.01,-0.00448 -0.01,-0.01v-5610.98c0,-0.00552 0.00448,-0.01 0.01,-0.01z" fill-rule="nonzero" fill="rgb(255, 255, 255)" fill-opacity="1" style="mix-blend-mode:normal"></path><g id="m2z568rc22023899_translate"><g transform="matrix(1,0,0,1,86.6468,220)"><g id="m2z568rc22023899" opacity="1" style="mix-blend-mode:normal"><g><g><g style="mix-blend-mode:normal"><g><path id="m2z568rc22023899_stroke_path" d="M344.35318,0c0,0 107.13498,28.94111 156.5,75.5c24.69293,23.28927 36.71561,38.99718 53.49997,68.5c19.60838,34.46676 36.28952,55.88632 34.5,95.5c-1.59224,35.24658 -11.12632,57.07032 -34.5,83.5c-20.16994,22.80707 -39.52424,26.46588 -65.99997,41.5c-45.04218,25.57699 -68.90916,47.97322 -120,56.5c-31.00832,5.17512 -49.1509,2.35198 -80.5,0c-49.60494,-3.72163 -79.56976,-44.76308 -125.00002,-24.5c-28.24571,12.59832 -37.74189,31.03645 -56.00001,56c-24.766,33.86151 -41.61255,56.11615 -44,98c-1.78506,31.31595 1.35953,51.31083 17,78.5c16.48672,28.66029 34.56791,39.99505 63.50001,56c34.51945,19.09581 59.77389,14.75286 98,24.5c83.20723,21.21672 135.73759,18.01465 212.50002,56.5c34.96989,17.53238 60.97054,22.1315 84.99997,53c18.44362,23.69289 36.64759,41.83783 29.5,71c-6.88272,28.08148 -31.6791,32.61385 -55.5,49c-28.85094,19.84626 -53.52044,17.17612 -80.49997,39.5c-36.10337,29.87328 -64.46701,54.64226 -64,101.5c0.42192,42.33332 13.05197,83.25072 54,94c25.44611,6.67986 45.90487,3.47972 66,-13.5c15.54645,-13.13624 22.73954,-25.72307 24.49997,-46c2.11119,-24.31708 -4.38221,-43.6778 -24.49997,-57.5c-21.24367,-14.59577 -41.69884,-8.58975 -66,0c-45.09879,15.9411 -53.40329,57.22161 -65.5,103.5c-10.07362,38.53865 -15.3757,65.25365 0,102c11.92793,28.50654 29.66983,38.14106 51,60.5c24.42505,25.60308 51.08087,29.39807 67,61c10.89067,21.61967 15.80834,36.40252 13.5,60.5c-3.65171,38.12128 -18.69536,71.84376 -56,80.5c-30.63303,7.10814 -45.62373,-18.18591 -75.5,-28c-79.21783,-26.02235 -127.68924,-66.54865 -208.50002,-46c-28.22785,7.17781 -44.83775,12.51677 -68.50001,29.5c-31.66609,22.72786 -45.91737,43.05822 -61,79c-15.24845,36.33692 -16.40169,60.70029 -13.5,100c1.88089,25.4742 -0.71315,42.77598 13.5,64c13.89438,20.74801 30.17345,25.31702 52.5,36.5c24.0175,12.02994 39.68933,13.559 65.50001,21c62.33592,17.97093 100.01314,17.06121 162.50002,34.5c57.45447,16.03435 95.30972,15.75934 144.5,49.5c30.97335,21.24528 44.60456,38.44174 68.99997,67c27.82574,32.57395 60.45536,47.68705 62,90.5c0.73613,20.40353 -4.38759,31.86209 -11.5,51c-9.57753,25.77101 -12.97971,45.46869 -36,60.5c-21.666,14.14702 -40.66527,17.26577 -65.49997,10c-29.1584,-8.53073 -51.0497,-25.76291 -54,-56c-2.31812,-23.75793 4.15689,-43.51118 24.5,-56c18.63749,-11.44172 37.20619,-11.18309 56,0c13.39265,7.96918 20.1705,16.52914 24.49997,31.5c5.42565,18.76134 0.4818,32.52098 -9.99997,49c-16.18423,25.44419 -41.70125,22.55751 -70.5,31.5c-24.35673,7.56317 -38.91609,8.39031 -64,13c-101.39622,18.63367 -193.00011,-48.14572 -262.50002,28c-16.53881,18.12031 -23.24039,30.70324 -34.5,52.5c-15.27611,29.57204 -18.48801,48.60349 -28,80.5c-24.53142,82.26107 -56.08671,132.58609 -38,216.5c6.15492,28.55598 9.09733,45.99628 25,70.5c12.63129,19.46299 22.56008,28.91714 41,43c38.12967,29.12024 70.01131,27.13993 116.50001,39c52.19373,13.31552 84.01261,8.90041 136.00002,23c48.23875,13.08291 80.31299,14.11776 120,44.5c28.15169,21.55142 45.87675,36.06428 59,69c7.72544,19.38871 13.22233,31.87912 9.99997,52.5c-3.14239,20.10916 -11.06301,30.71272 -24.49997,46c-13.98242,15.90785 -24.64601,23.62526 -44.5,31c-27.63941,10.26663 -46.02063,-0.55476 -75.5,0c-82.2045,1.54697 -136.98451,-22.79826 -210.00002,15c-39.16489,20.27466 -63.39674,34.74632 -87.00001,72c-23.42048,36.96519 -32.49103,79.01542 -28,108.5c4.49103,29.48458 7.00897,46.01542 11.5,75.5c4.49103,29.48458 20.78228,37.68488 41,55.5c44.09497,38.85488 89.64563,19.81911 146.00001,36.5c65.07737,19.2629 105.73037,22.70386 164.00002,57.5c25.2183,15.05929 52.168,15.98678 61,44c7.05854,22.38819 0.15926,38.62561 -11.5,59c-10.84294,18.94788 -20.38716,30.80957 -41,38c-16.96175,5.91681 -28.49815,4.04904 -46,0c-31.38919,-7.26187 -37.00824,-35.44675 -66,-49.5c-44.2846,-21.4662 -81.1315,-42.76145 -124.50002,-19.5c-29.83815,16.00421 -37.82497,38.48618 -52.50001,69c-11.56729,24.05187 -21.26768,38.86976 -19.5,65.5c1.44859,21.82308 6.26098,35.091 19.5,52.5c21.04323,27.67135 48.14055,25.29619 80.50001,38c88.11769,34.59359 151.21118,8.196 238.00002,46c27.86452,12.13739 47.81593,14.20587 68.99997,36c22.22393,22.86398 26.73962,43.07362 34.5,74c9.98002,39.77201 11.60765,65.67219 0,105c-6.42826,21.77956 -12.01275,33.87198 -25,52.5c-49.03251,70.32884 -135.60866,21.38233 -209.99997,64c-29.09293,16.6669 -46.61451,25.46988 -70.50002,49c-34.21008,33.70108 -48.89835,59.41456 -64,105c-13.23731,39.9578 -27.31528,67.4156 -13,107c14.13752,39.09285 45.70588,46.13582 77,73.5c98.62114,86.23622 207.77914,75.02985 280.49998,184c29.00134,43.45769 43.48009,70.77623 56,121.5c23.66774,95.88865 14.32307,163.24686 -31,251c-43.35658,83.94567 -89.66441,127.62239 -175.99997,166" fill="none" stroke="rgb(0, 0, 0)" stroke-width="1" stroke-linecap="butt" stroke-linejoin="miter" stroke-dasharray="0 0" stroke-opacity="1"></path><defs><mask id="m2z568rc22023899_gradient_mask"></mask></defs><rect x="-592.9459" y="-5107" width="1778.8377" height="15321" fill="url(#m2z568rc22023899ps0)" mask="url(#m2z568rc22023899_gradient_mask)"></rect></g></g></g></g></g></g></g></g></g></g></g></g><animate href="#m2z568rc22023899_stroke_path" attributeName="stroke-dasharray" values="0 10430.6361;415.16 10015.4761;831.3527 9599.2834;1248.5781 9182.058;1665.8036 8764.8325;2084.0617 8346.5743;2502.3199 7928.3162;2921.6108 7509.0252;3341.9345 7088.7016;3761.2254 6669.4107;4181.5491 6249.087;4601.8727 5828.7634;5021.1636 5409.4725;5439.4218 4991.2143;5857.68 4572.9561;6273.8727 4156.7634;6689.0327 3741.6034;7103.1599 3327.4762;7516.2544 2914.3817;7928.3162 2502.3199;8338.3124 2092.3236;8748.3087 1682.3273;9157.2723 1273.3638;9565.2031 865.433;9972.1012 458.5349;10327.3625 103.2736" dur="5s" repeatCount="indefinite" keyTimes="0;0.04;0.08;0.12;0.16;0.2;0.24;0.28;0.32;0.36;0.4;0.44;0.48;0.52;0.56;0.6;0.64;0.68;0.72;0.76;0.8;0.84;0.88;0.92;0.96;1" fill="freeze"></animate><animate href="#m2z568rc22023899_stroke_path" attributeName="stroke-dashoffset" values="0;0;0;0;0;0;0;0;0;0;0;0;0;0;0;0;0;0;0;0;0;0;0;0;0;0" dur="5s" repeatCount="indefinite" keyTimes="0;0.04;0.08;0.12;0.16;0.2;0.24;0.28;0.32;0.36;0.4;0.44;0.48;0.52;0.56;0.6;0.64;0.68;0.72;0.76;0.8;0.84;0.88;0.92;0.96;1" fill="freeze"></animate></svg>